<svg width="16" height="16" viewBox="0 0 16 16" fill="none" xmlns="http://www.w3.org/2000/svg">
<path d="M8.47305 8.93334C8.41108 8.99583 8.33734 9.04543 8.2561 9.07927C8.17486 9.11312 8.08773 9.13054 7.99972 9.13054C7.91171 9.13054 7.82457 9.11312 7.74333 9.07927C7.6621 9.04543 7.58836 8.99583 7.52639 8.93334L4.47305 5.87334C4.41107 5.81086 4.33734 5.76126 4.2561 5.72742C4.17486 5.69357 4.08772 5.67615 3.99972 5.67615C3.91171 5.67615 3.82457 5.69357 3.74333 5.72742C3.66209 5.76126 3.58836 5.81086 3.52638 5.87334C3.40221 5.99825 3.33252 6.16722 3.33252 6.34334C3.33252 6.51947 3.40221 6.68844 3.52638 6.81334L6.58638 9.87335C6.96139 10.2479 7.46972 10.4583 7.99972 10.4583C8.52972 10.4583 9.03805 10.2479 9.41305 9.87335L12.4731 6.81334C12.5962 6.68917 12.6657 6.52157 12.6664 6.34668C12.6669 6.25894 12.6501 6.17196 12.6169 6.09074C12.5837 6.00951 12.5348 5.93564 12.4731 5.87334C12.4111 5.81086 12.3373 5.76126 12.2561 5.72742C12.1749 5.69357 12.0877 5.67615 11.9997 5.67615C11.9117 5.67615 11.8246 5.69357 11.7433 5.72742C11.6621 5.76126 11.5884 5.81086 11.5264 5.87334L8.47305 8.93334Z" fill="#FD9222"/>
</svg>
