<svg width="28" height="28" viewBox="0 0 28 28" fill="none" xmlns="http://www.w3.org/2000/svg">
<ellipse cx="14" cy="14" rx="14" ry="14" transform="matrix(0 1 1 0 0 0)" fill="white"/>
<path d="M14.4731 14.9333C14.4111 14.9958 14.3373 15.0454 14.2561 15.0793C14.1749 15.1131 14.0877 15.1305 13.9997 15.1305C13.9117 15.1305 13.8246 15.1131 13.7433 15.0793C13.6621 15.0454 13.5884 14.9958 13.5264 14.9333L10.473 11.8733C10.4111 11.8109 10.3373 11.7613 10.2561 11.7274C10.1749 11.6936 10.0877 11.6761 9.99972 11.6761C9.91171 11.6761 9.82457 11.6936 9.74333 11.7274C9.66209 11.7613 9.58836 11.8109 9.52638 11.8733C9.40221 11.9983 9.33252 12.1672 9.33252 12.3433C9.33252 12.5195 9.40221 12.6884 9.52638 12.8133L12.5864 15.8733C12.9614 16.2479 13.4697 16.4583 13.9997 16.4583C14.5297 16.4583 15.0381 16.2479 15.4131 15.8733L18.4731 12.8133C18.5962 12.6892 18.6657 12.5216 18.6664 12.3467C18.6669 12.2589 18.6501 12.172 18.6169 12.0907C18.5837 12.0095 18.5348 11.9356 18.4731 11.8733C18.4111 11.8109 18.3373 11.7613 18.2561 11.7274C18.1749 11.6936 18.0877 11.6761 17.9997 11.6761C17.9117 11.6761 17.8246 11.6936 17.7433 11.7274C17.6621 11.7613 17.5884 11.8109 17.5264 11.8733L14.4731 14.9333Z" fill="#FD9222"/>
</svg>
